<?xml version="1.0" encoding="utf-8"?>
<!-- Generator: Adobe Illustrator 22.1.0, SVG Export Plug-In . SVG Version: 6.00 Build 0)  -->
<svg version="1.1" id="Laag_1" xmlns="http://www.w3.org/2000/svg" xmlns:xlink="http://www.w3.org/1999/xlink" x="0px" y="0px"
	 viewBox="0 0 304.6 178.5" style="enable-background:new 0 0 304.6 178.5;" xml:space="preserve">
<style type="text/css">
	.st0{fill:#FFFFFF;}
</style>
<path class="st0" d="M299.6,94.6H5c-2.8,0-5-2.2-5-5s2.2-5,5-5h294.6c2.8,0,5,2.2,5,5S302.3,94.6,299.6,94.6z"/>
<path class="st0" d="M220.2,178.5c-1.2,0-2.5-0.5-3.4-1.4c-2-1.9-2.1-5.1-0.2-7.1l76.1-80.5L216.6,8.4c-1.9-2-1.8-5.2,0.2-7.1
	c2-1.9,5.2-1.8,7.1,0.2l79.3,84.6c1.8,1.9,1.8,4.9,0,6.9l-79.3,83.9C222.9,178,221.5,178.5,220.2,178.5z"/>
</svg>
