<?xml version="1.0" encoding="iso-8859-1"?>
<!-- Generator: Adobe Illustrator 20.1.0, SVG Export Plug-In . SVG Version: 6.00 Build 0)  -->
<svg version="1.1" id="Laag_1" xmlns="http://www.w3.org/2000/svg" xmlns:xlink="http://www.w3.org/1999/xlink" x="0px" y="0px"
	 viewBox="0 0 304.565 178.479" style="enable-background:new 0 0 304.565 178.479;" xml:space="preserve">
<path d="M299.565,94.566H5c-2.761,0-5-2.239-5-5s2.239-5,5-5h294.565c2.761,0,5,2.239,5,5S302.327,94.566,299.565,94.566z"/>
<path d="M220.216,178.479c-1.233,0-2.468-0.453-3.435-1.367c-2.006-1.897-2.095-5.062-0.197-7.068l76.112-80.491L216.571,8.422
	c-1.89-2.014-1.789-5.178,0.225-7.067c2.013-1.891,5.178-1.79,7.067,0.225l79.348,84.565c1.811,1.929,1.805,4.935-0.013,6.857
	l-79.348,83.913C222.867,177.954,221.543,178.479,220.216,178.479z"/>
</svg>
