<?xml version="1.0" encoding="utf-8"?>
<!-- Generator: Adobe Illustrator 22.1.0, SVG Export Plug-In . SVG Version: 6.00 Build 0)  -->
<svg version="1.1" id="Laag_1" xmlns="http://www.w3.org/2000/svg" xmlns:xlink="http://www.w3.org/1999/xlink" x="0px" y="0px"
	 viewBox="0 0 157.5 231.4" style="enable-background:new 0 0 157.5 231.4;" xml:space="preserve">
<style type="text/css">
	.st0{fill:#771C34;}
	.st1{fill:#996F24;}
	.st2{fill:#E5AC2C;}
	.st3{fill:#C10C43;}
</style>
<title>Tekengebied 1 kopie 2</title>
<g id="Layer_1">
	<path class="st0" d="M67.7,169.9c3.6-1.9,8.1-3.6,11.4-5.8c-46-38.4-76.5-58.2-78.8-17c-0.4,7.2,0.2,6.2,0.6,5.2c0,0.2,2,6.1,2,6.1
		S33.2,188.3,67.7,169.9z"/>
	<path class="st1" d="M144.8,85.2c2.2-8.6,1.4-17.8-2.2-25.9c0,0-33.1-44.4-69.3,0.6c1.5,1.1,3,2.3,4.5,3.6
		C114.9,95.5,138.7,108,144.8,85.2z"/>
	<path class="st2" d="M11.2,65.5l-0.1,0.2L11.2,65.5z"/>
	<path class="st2" d="M11,66.3L11,66.3l0.2-0.6L11,66.3z"/>
	<path class="st2" d="M144.2,63.2C133.9,36.1,110.8-0.3,78.2,0C44.8,0.3,23.5,35.1,12.4,62.5c-16.7,41.2,11.3,37.2,41.4,19
		c16.4-9.9,30.3-28.2,49.5-32.1c5.5-1.1,15.2-2,23,1.2c1.2,0.5,3.2,1.2,5.1,2.2c1.9,0.9,3.7,2.1,5.4,3.3
		C139.5,58.2,142,60.6,144.2,63.2z"/>
	<path class="st3" d="M157.2,153.2c-4.2-43.5-57-3.2-78.7,10.8c-4.8,3.3-10.1,5.9-15.7,7.6c-6.6,1.8-13.4,2.6-20.2,2.3
		c-7.4-0.1-14.7-1.6-21.5-4.4c-4.5-2.2-8.8-4.9-12.6-8.2c-2.2-2.2-4.1-4.7-5.6-7.5c-1.9-3.4-2.5-8.5-2.1-13.4
		c-1.1,5.8-1.2,11.7-0.4,17.6c5.3,60.8,59.2,88.1,112.1,65.5C138.2,212.6,160,182.3,157.2,153.2z"/>
</g>
</svg>
