<?xml version="1.0" encoding="utf-8"?>
<!-- Generator: Adobe Illustrator 20.1.0, SVG Export Plug-In . SVG Version: 6.00 Build 0)  -->
<svg version="1.1" id="Laag_1" xmlns="http://www.w3.org/2000/svg" xmlns:xlink="http://www.w3.org/1999/xlink" x="0px" y="0px"
	 viewBox="0 0 115.4 115.4" style="enable-background:new 0 0 115.4 115.4;" xml:space="preserve">
<style type="text/css">
	.st0{fill:#C10C43;}
</style>
<path class="st0" d="M21.1,23.1H2c-1.1,0-2-0.9-2-2V2c0-1.1,0.9-2,2-2h19.1c1.1,0,2,0.9,2,2v19.1C23.1,22.2,22.2,23.1,21.1,23.1z"/>
<path class="st0" d="M67.3,23.1H48.1c-1.1,0-2-0.9-2-2V2c0-1.1,0.9-2,2-2h19.1c1.1,0,2,0.9,2,2v19.1C69.3,22.2,68.4,23.1,67.3,23.1z
	"/>
<path class="st0" d="M113.4,23.1H94.2c-1.1,0-2-0.9-2-2V2c0-1.1,0.9-2,2-2h19.1c1.1,0,2,0.9,2,2v19.1
	C115.4,22.2,114.5,23.1,113.4,23.1z"/>
<path class="st0" d="M21.1,69.3H2c-1.1,0-2-0.9-2-2V48.1c0-1.1,0.9-2,2-2h19.1c1.1,0,2,0.9,2,2v19.1C23.1,68.4,22.2,69.3,21.1,69.3z
	"/>
<path class="st0" d="M67.3,69.3H48.1c-1.1,0-2-0.9-2-2V48.1c0-1.1,0.9-2,2-2h19.1c1.1,0,2,0.9,2,2v19.1
	C69.3,68.4,68.4,69.3,67.3,69.3z"/>
<path class="st0" d="M113.4,69.3H94.2c-1.1,0-2-0.9-2-2V48.1c0-1.1,0.9-2,2-2h19.1c1.1,0,2,0.9,2,2v19.1
	C115.4,68.4,114.5,69.3,113.4,69.3z"/>
<path class="st0" d="M21.1,115.4H2c-1.1,0-2-0.9-2-2V94.2c0-1.1,0.9-2,2-2h19.1c1.1,0,2,0.9,2,2v19.1
	C23.1,114.5,22.2,115.4,21.1,115.4z"/>
<path class="st0" d="M67.3,115.4H48.1c-1.1,0-2-0.9-2-2V94.2c0-1.1,0.9-2,2-2h19.1c1.1,0,2,0.9,2,2v19.1
	C69.3,114.5,68.4,115.4,67.3,115.4z"/>
<path class="st0" d="M113.4,115.4H94.2c-1.1,0-2-0.9-2-2V94.2c0-1.1,0.9-2,2-2h19.1c1.1,0,2,0.9,2,2v19.1
	C115.4,114.5,114.5,115.4,113.4,115.4z"/>
</svg>
