<?xml version="1.0" encoding="iso-8859-1"?>
<!-- Generator: Adobe Illustrator 20.1.0, SVG Export Plug-In . SVG Version: 6.00 Build 0)  -->
<svg version="1.1" id="Laag_1" xmlns="http://www.w3.org/2000/svg" xmlns:xlink="http://www.w3.org/1999/xlink" x="0px" y="0px"
	 viewBox="0 0 115.385 115.385" style="enable-background:new 0 0 115.385 115.385;" xml:space="preserve">
<path style="fill:#202139;" d="M21.135,23.138H2.003C0.897,23.138,0,22.241,0,21.135V2.003C0,0.897,0.897,0,2.003,0h19.132
	c1.106,0,2.003,0.897,2.003,2.003v19.132C23.138,22.241,22.241,23.138,21.135,23.138z"/>
<path style="fill:#202139;" d="M67.259,23.138H48.127c-1.106,0-2.003-0.897-2.003-2.003V2.003C46.124,0.897,47.02,0,48.127,0h19.132
	c1.106,0,2.003,0.897,2.003,2.003v19.132C69.262,22.241,68.365,23.138,67.259,23.138z"/>
<path style="fill:#202139;" d="M113.382,23.138H94.25c-1.106,0-2.003-0.897-2.003-2.003V2.003C92.247,0.897,93.144,0,94.25,0h19.132
	c1.106,0,2.003,0.897,2.003,2.003v19.132C115.385,22.241,114.489,23.138,113.382,23.138z"/>
<path style="fill:#202139;" d="M21.135,69.262H2.003C0.897,69.262,0,68.365,0,67.259V48.127c0-1.106,0.897-2.003,2.003-2.003h19.132
	c1.106,0,2.003,0.897,2.003,2.003v19.132C23.138,68.365,22.241,69.262,21.135,69.262z"/>
<path style="fill:#202139;" d="M67.259,69.262H48.127c-1.106,0-2.003-0.897-2.003-2.003V48.127c0-1.106,0.897-2.003,2.003-2.003
	h19.132c1.106,0,2.003,0.897,2.003,2.003v19.132C69.262,68.365,68.365,69.262,67.259,69.262z"/>
<path style="fill:#202139;" d="M113.382,69.262H94.25c-1.106,0-2.003-0.897-2.003-2.003V48.127c0-1.106,0.897-2.003,2.003-2.003
	h19.132c1.106,0,2.003,0.897,2.003,2.003v19.132C115.385,68.365,114.489,69.262,113.382,69.262z"/>
<path style="fill:#202139;" d="M21.135,115.385H2.003c-1.106,0-2.003-0.897-2.003-2.003V94.25c0-1.106,0.897-2.003,2.003-2.003
	h19.132c1.106,0,2.003,0.897,2.003,2.003v19.132C23.138,114.489,22.241,115.385,21.135,115.385z"/>
<path style="fill:#202139;" d="M67.259,115.385H48.127c-1.106,0-2.003-0.897-2.003-2.003V94.25c0-1.106,0.897-2.003,2.003-2.003
	h19.132c1.106,0,2.003,0.897,2.003,2.003v19.132C69.262,114.489,68.365,115.385,67.259,115.385z"/>
<path style="fill:#202139;" d="M113.382,115.385H94.25c-1.106,0-2.003-0.897-2.003-2.003V94.25c0-1.106,0.897-2.003,2.003-2.003
	h19.132c1.106,0,2.003,0.897,2.003,2.003v19.132C115.385,114.489,114.489,115.385,113.382,115.385z"/>
</svg>
