<?xml version="1.0" encoding="utf-8"?>
<!-- Generator: Adobe Illustrator 20.1.0, SVG Export Plug-In . SVG Version: 6.00 Build 0)  -->
<svg version="1.1" id="Laag_1" xmlns="http://www.w3.org/2000/svg" xmlns:xlink="http://www.w3.org/1999/xlink" x="0px" y="0px"
	 viewBox="0 0 200 200" style="enable-background:new 0 0 200 200;" xml:space="preserve">
<style type="text/css">
	.st0{fill:#C10C43;}
</style>
<g>
	<path class="st0" d="M13,135c0-8.3,6.3-14.9,19-19.8s24.9-7.4,36.5-7.4s23.9,2.5,36.9,7.4c12.9,4.9,19.4,11.5,19.4,19.8v21H13V135
		L13,135z M68.5,90.7c-6.7,0-12.4-2.3-17.1-6.8s-7-10-7-16.5s2.3-12,7-16.5s10.4-6.8,17.1-6.8c6.5,0,12,2.3,16.7,6.8s7,10,7,16.5
		s-2.3,12-7,16.5C80.6,88.4,75,90.7,68.5,90.7z M131.5,90.7c-6.5,0-12-2.3-16.7-6.8s-7-10-7-16.5s2.3-12,7-16.5s10.2-6.8,16.7-6.8
		c6.7,0,12.4,2.3,17.1,6.8c4.7,4.5,7,10,7,16.5s-2.3,12-7,16.5C143.9,88.4,138.2,90.7,131.5,90.7z M124.9,112.4
		c1.8-0.3,4-0.4,6.6-0.4c12.9,0,25.4,1.8,37.5,5.4c12,3.6,18.1,9.5,18.1,17.5v21h-49.7v-21c0-5.4-0.9-9.6-2.7-12.6
		C132.8,119.4,129.5,116.1,124.9,112.4L124.9,112.4z"/>
</g>
</svg>
