<svg id="Laag_1" xmlns="http://www.w3.org/2000/svg" viewBox="0 0 157.5 231.4"><style>.st0{fill:#771c34}.st1{fill:#996f24}.st2{fill:#e5ac2c}.st3{fill:#c10c43}</style><title>Tekengebied 1 kopie 2</title><g id="Layer_1"><path class="st0" d="M67.7 169.9c3.6-1.9 8.1-3.6 11.4-5.8-46-38.4-76.5-58.2-78.8-17-.4 7.2.2 6.2.6 5.2 0 .2 2 6.1 2 6.1s30.3 29.9 64.8 11.5z"/><path class="st1" d="M144.8 85.2c2.2-8.6 1.4-17.8-2.2-25.9 0 0-33.1-44.4-69.3.6 1.5 1.1 3 2.3 4.5 3.6 37.1 32 60.9 44.5 67 21.7z"/><path class="st2" d="M11.2 65.5l-.1.2.1-.2zm-.2.8l.2-.6-.2.6zm133.2-3.1C133.9 36.1 110.8-.3 78.2 0 44.8.3 23.5 35.1 12.4 62.5c-16.7 41.2 11.3 37.2 41.4 19 16.4-9.9 30.3-28.2 49.5-32.1 5.5-1.1 15.2-2 23 1.2 1.2.5 3.2 1.2 5.1 2.2 1.9.9 3.7 2.1 5.4 3.3 2.7 2.1 5.2 4.5 7.4 7.1z"/><path class="st3" d="M157.2 153.2c-4.2-43.5-57-3.2-78.7 10.8-4.8 3.3-10.1 5.9-15.7 7.6-6.6 1.8-13.4 2.6-20.2 2.3-7.4-.1-14.7-1.6-21.5-4.4-4.5-2.2-8.8-4.9-12.6-8.2-2.2-2.2-4.1-4.7-5.6-7.5C1 150.4.4 145.3.8 140.4-.3 146.2-.4 152.1.4 158c5.3 60.8 59.2 88.1 112.1 65.5 25.7-10.9 47.5-41.2 44.7-70.3z"/></g></svg>