<svg id="Laag_1" xmlns="http://www.w3.org/2000/svg" viewBox="0 0 115.4 115.4"><style>.st0{fill:#fff}</style><path class="st0" d="M21.1 23.1H2c-1.1 0-2-.9-2-2V2C0 .9.9 0 2 0h19.1c1.1 0 2 .9 2 2v19.1c0 1.1-.9 2-2 2zm46.2 0H48.1c-1.1 0-2-.9-2-2V2c0-1.1.9-2 2-2h19.1c1.1 0 2 .9 2 2v19.1c.1 1.1-.8 2-1.9 2zm46.1 0H94.2c-1.1 0-2-.9-2-2V2c0-1.1.9-2 2-2h19.1c1.1 0 2 .9 2 2v19.1c.1 1.1-.8 2-1.9 2zM21.1 69.3H2c-1.1 0-2-.9-2-2V48.1c0-1.1.9-2 2-2h19.1c1.1 0 2 .9 2 2v19.1c0 1.2-.9 2.1-2 2.1zm46.2 0H48.1c-1.1 0-2-.9-2-2V48.1c0-1.1.9-2 2-2h19.1c1.1 0 2 .9 2 2v19.1c.1 1.2-.8 2.1-1.9 2.1zm46.1 0H94.2c-1.1 0-2-.9-2-2V48.1c0-1.1.9-2 2-2h19.1c1.1 0 2 .9 2 2v19.1c.1 1.2-.8 2.1-1.9 2.1zm-92.3 46.1H2c-1.1 0-2-.9-2-2V94.2c0-1.1.9-2 2-2h19.1c1.1 0 2 .9 2 2v19.1c0 1.2-.9 2.1-2 2.1zm46.2 0H48.1c-1.1 0-2-.9-2-2V94.2c0-1.1.9-2 2-2h19.1c1.1 0 2 .9 2 2v19.1c.1 1.2-.8 2.1-1.9 2.1zm46.1 0H94.2c-1.1 0-2-.9-2-2V94.2c0-1.1.9-2 2-2h19.1c1.1 0 2 .9 2 2v19.1c.1 1.2-.8 2.1-1.9 2.1z"/></svg>