<svg xmlns="http://www.w3.org/2000/svg" viewBox="0 0 115.385 115.385"><path d="M21.135 23.138H2.003A2.003 2.003 0 0 1 0 21.135V2.003C0 .897.897 0 2.003 0h19.132c1.106 0 2.003.897 2.003 2.003v19.132a2.003 2.003 0 0 1-2.003 2.003zm46.124 0H48.127a2.003 2.003 0 0 1-2.003-2.003V2.003C46.124.897 47.02 0 48.127 0h19.132c1.106 0 2.003.897 2.003 2.003v19.132a2.003 2.003 0 0 1-2.003 2.003zm46.123 0H94.25a2.003 2.003 0 0 1-2.003-2.003V2.003C92.247.897 93.144 0 94.25 0h19.132c1.106 0 2.003.897 2.003 2.003v19.132a2.003 2.003 0 0 1-2.003 2.003zM21.135 69.262H2.003A2.003 2.003 0 0 1 0 67.259V48.127c0-1.106.897-2.003 2.003-2.003h19.132c1.106 0 2.003.897 2.003 2.003v19.132a2.003 2.003 0 0 1-2.003 2.003zm46.124 0H48.127a2.003 2.003 0 0 1-2.003-2.003V48.127c0-1.106.897-2.003 2.003-2.003h19.132c1.106 0 2.003.897 2.003 2.003v19.132a2.003 2.003 0 0 1-2.003 2.003zm46.123 0H94.25a2.003 2.003 0 0 1-2.003-2.003V48.127c0-1.106.897-2.003 2.003-2.003h19.132c1.106 0 2.003.897 2.003 2.003v19.132a2.003 2.003 0 0 1-2.003 2.003zm-92.247 46.123H2.003A2.003 2.003 0 0 1 0 113.382V94.25c0-1.106.897-2.003 2.003-2.003h19.132c1.106 0 2.003.897 2.003 2.003v19.132a2.003 2.003 0 0 1-2.003 2.003zm46.124 0H48.127a2.003 2.003 0 0 1-2.003-2.003V94.25c0-1.106.897-2.003 2.003-2.003h19.132c1.106 0 2.003.897 2.003 2.003v19.132a2.003 2.003 0 0 1-2.003 2.003zm46.123 0H94.25a2.003 2.003 0 0 1-2.003-2.003V94.25c0-1.106.897-2.003 2.003-2.003h19.132c1.106 0 2.003.897 2.003 2.003v19.132a2.002 2.002 0 0 1-2.003 2.003z" fill="#202139"/></svg>