<svg id="Laag_1" xmlns="http://www.w3.org/2000/svg" viewBox="0 0 200 200"><style>.st0{fill:#fff}</style><path class="st0" d="M100.9 2.8c7.5 0 14.5 1.4 21.2 4.3 6.6 2.9 12.4 6.8 17.3 11.7 5 5 8.9 10.7 11.7 17.3 2.9 6.6 4.3 13.7 4.3 21.2v86.1c0 7.5-1.4 14.6-4.3 21.2s-6.8 12.4-11.7 17.3c-5 5-10.7 8.9-17.3 11.7-6.6 2.9-13.7 4.3-21.2 4.3-7.6 0-14.8-1.4-21.4-4.3-6.7-2.9-12.5-6.8-17.5-11.7-5-5-9-10.7-11.9-17.3-2.9-6.6-4.4-13.7-4.4-21.2V57.3c0-7.5 1.5-14.5 4.4-21.2C53 29.5 57 23.7 62 18.8c5-5 10.9-8.9 17.5-11.7s13.8-4.3 21.4-4.3zm42.3 140.7V57.3c0-5.8-1.1-11.3-3.3-16.5-2.2-5.1-5.2-9.6-9.1-13.4s-8.3-6.8-13.4-9.1c-5.1-2.2-10.6-3.3-16.5-3.3-5.8 0-11.4 1.1-16.6 3.3-5.2 2.2-9.8 5.2-13.7 9.1-3.9 3.8-7.1 8.3-9.3 13.4s-3.4 10.6-3.4 16.5v86.1c0 5.8 1.1 11.3 3.4 16.5s5.4 9.6 9.3 13.4c3.9 3.8 8.5 6.8 13.7 9.1 5.2 2.2 10.7 3.3 16.6 3.3 5.8 0 11.3-1.1 16.5-3.3 5.1-2.2 9.6-5.2 13.4-9.1 3.8-3.8 6.8-8.3 9.1-13.4 2.2-5.1 3.3-10.6 3.3-16.4zM100.5 39.4c1.8 0 3.2.6 4.4 1.8 1.1 1.2 1.7 2.6 1.7 4.3V76c0 1.7-.6 3.1-1.7 4.3-1.1 1.2-2.6 1.8-4.4 1.8-1.7 0-3.1-.6-4.3-1.8-1.2-1.2-1.8-2.6-1.8-4.3V45.5c0-1.6.6-3.1 1.8-4.3 1.2-1.2 2.7-1.8 4.3-1.8z"/></svg>