<svg id="Laag_1" xmlns="http://www.w3.org/2000/svg" viewBox="0 0 200 200"><style>.st0{fill:#21203a}</style><path class="st0" d="M13 135c0-8.3 6.3-14.9 19-19.8s24.9-7.4 36.5-7.4 23.9 2.5 36.9 7.4c12.9 4.9 19.4 11.5 19.4 19.8v21H13v-21zm55.5-44.3c-6.7 0-12.4-2.3-17.1-6.8-4.7-4.5-7-10-7-16.5s2.3-12 7-16.5 10.4-6.8 17.1-6.8c6.5 0 12 2.3 16.7 6.8 4.7 4.5 7 10 7 16.5s-2.3 12-7 16.5c-4.6 4.5-10.2 6.8-16.7 6.8zm63 0c-6.5 0-12-2.3-16.7-6.8-4.7-4.5-7-10-7-16.5s2.3-12 7-16.5 10.2-6.8 16.7-6.8c6.7 0 12.4 2.3 17.1 6.8 4.7 4.5 7 10 7 16.5s-2.3 12-7 16.5-10.4 6.8-17.1 6.8zm-6.6 21.7c1.8-.3 4-.4 6.6-.4 12.9 0 25.4 1.8 37.5 5.4 12 3.6 18.1 9.5 18.1 17.5v21h-49.7v-21c0-5.4-.9-9.6-2.7-12.6-1.9-2.9-5.2-6.2-9.8-9.9z"/></svg>